# xmcd
#
# Track frame offsets:
#	150
#	13487
#	31413
#	45192
#	65586
#	86766
#	107607
#	125166
#	145076
#	159166
#
# Disc length: 2391 seconds
#
# Revision: 1
# Processed by: cddbd v1.5.2PL0 Copyright (c) Steve Scherf et al.
# Submitted via: audiograbber 1.83.01
#
DISCID=8109550a
DTITLE=Pretty Gritty - Pretty Gritty
DYEAR=2013
DGENRE=Americana
TTITLE0=Hey You
TTITLE1=Highway
TTITLE2=I Don't Know Why
TTITLE3=This Heart Of Mine
TTITLE4=Hellhound Blues
TTITLE5=Evergreen
TTITLE6=Stay
TTITLE7=Good Man
TTITLE8=Cliché
TTITLE9=Ol Train Whistle
EXTD=
EXTT0=
EXTT1=
EXTT2=
EXTT3=
EXTT4=
EXTT5=
EXTT6=
EXTT7=
EXTT8=
EXTT9=
PLAYORDER=
